<mxfile host="app.diagrams.net" agent="Mozilla/5.0 (X11; Ubuntu; Linux x86_64; rv:133.0) Gecko/20100101 Firefox/133.0" version="26.0.3">
  <diagram name="Page-1" id="vk3FCZa8qpydm1qLOxvx">
    <mxGraphModel dx="694" dy="396" grid="1" gridSize="10" guides="1" tooltips="1" connect="1" arrows="1" fold="1" page="1" pageScale="1" pageWidth="850" pageHeight="1100" math="0" shadow="0">
      <root>
        <mxCell id="0" />
        <mxCell id="1" parent="0" />
        <mxCell id="VUqLvzfOgISOAL3P8d6s-1" value="Student" style="rounded=0;whiteSpace=wrap;html=1;fillColor=#e1d5e7;strokeColor=#9673a6;" vertex="1" parent="1">
          <mxGeometry x="350" y="120" width="60" height="20" as="geometry" />
        </mxCell>
        <mxCell id="VUqLvzfOgISOAL3P8d6s-12" value="Income" style="rounded=0;whiteSpace=wrap;html=1;fillColor=#ffe6cc;strokeColor=#d79b00;" vertex="1" parent="1">
          <mxGeometry x="270" y="170" width="50" height="20" as="geometry" />
        </mxCell>
        <mxCell id="VUqLvzfOgISOAL3P8d6s-13" value="Income" style="rounded=0;whiteSpace=wrap;html=1;fillColor=#ffe6cc;strokeColor=#d79b00;" vertex="1" parent="1">
          <mxGeometry x="440" y="170" width="50" height="20" as="geometry" />
        </mxCell>
        <mxCell id="VUqLvzfOgISOAL3P8d6s-14" value="Age" style="rounded=0;whiteSpace=wrap;html=1;fillColor=#e1d5e7;strokeColor=#9673a6;" vertex="1" parent="1">
          <mxGeometry x="220" y="220" width="40" height="20" as="geometry" />
        </mxCell>
        <mxCell id="VUqLvzfOgISOAL3P8d6s-15" value="CR" style="rounded=0;whiteSpace=wrap;html=1;fillColor=#e1d5e7;strokeColor=#9673a6;" vertex="1" parent="1">
          <mxGeometry x="330" y="220" width="40" height="20" as="geometry" />
        </mxCell>
        <mxCell id="VUqLvzfOgISOAL3P8d6s-16" value="CR" style="rounded=0;whiteSpace=wrap;html=1;fillColor=#e1d5e7;strokeColor=#9673a6;" vertex="1" parent="1">
          <mxGeometry x="390" y="220" width="40" height="20" as="geometry" />
        </mxCell>
        <mxCell id="VUqLvzfOgISOAL3P8d6s-18" value="No" style="rounded=0;whiteSpace=wrap;html=1;fillColor=#dae8fc;strokeColor=#6c8ebf;" vertex="1" parent="1">
          <mxGeometry x="170" y="290" width="30" height="20" as="geometry" />
        </mxCell>
        <mxCell id="VUqLvzfOgISOAL3P8d6s-19" value="Yes" style="rounded=0;whiteSpace=wrap;html=1;fillColor=#dae8fc;strokeColor=#6c8ebf;" vertex="1" parent="1">
          <mxGeometry x="225" y="280" width="30" height="20" as="geometry" />
        </mxCell>
        <mxCell id="VUqLvzfOgISOAL3P8d6s-20" value="Age" style="rounded=0;whiteSpace=wrap;html=1;fillColor=#ffe6cc;strokeColor=#d79b00;" vertex="1" parent="1">
          <mxGeometry x="280" y="280" width="30" height="20" as="geometry" />
        </mxCell>
        <mxCell id="VUqLvzfOgISOAL3P8d6s-21" value="Age" style="rounded=0;whiteSpace=wrap;html=1;fillColor=#ffe6cc;strokeColor=#d79b00;" vertex="1" parent="1">
          <mxGeometry x="335" y="280" width="30" height="20" as="geometry" />
        </mxCell>
        <mxCell id="VUqLvzfOgISOAL3P8d6s-22" value="Yes" style="rounded=0;whiteSpace=wrap;html=1;fillColor=#dae8fc;strokeColor=#6c8ebf;" vertex="1" parent="1">
          <mxGeometry x="395" y="280" width="30" height="20" as="geometry" />
        </mxCell>
        <mxCell id="VUqLvzfOgISOAL3P8d6s-23" value="Age" style="rounded=0;whiteSpace=wrap;html=1;fillColor=#ffe6cc;strokeColor=#d79b00;" vertex="1" parent="1">
          <mxGeometry x="450" y="280" width="30" height="20" as="geometry" />
        </mxCell>
        <mxCell id="VUqLvzfOgISOAL3P8d6s-24" value="Yes" style="rounded=0;whiteSpace=wrap;html=1;fillColor=#dae8fc;strokeColor=#6c8ebf;" vertex="1" parent="1">
          <mxGeometry x="505" y="280" width="35" height="20" as="geometry" />
        </mxCell>
        <mxCell id="VUqLvzfOgISOAL3P8d6s-25" value="Yes" style="rounded=0;whiteSpace=wrap;html=1;fillColor=#dae8fc;strokeColor=#6c8ebf;" vertex="1" parent="1">
          <mxGeometry x="570" y="280" width="30" height="20" as="geometry" />
        </mxCell>
        <mxCell id="VUqLvzfOgISOAL3P8d6s-27" value="Yes" style="rounded=0;whiteSpace=wrap;html=1;fillColor=#dae8fc;strokeColor=#6c8ebf;" vertex="1" parent="1">
          <mxGeometry x="230" y="330" width="30" height="20" as="geometry" />
        </mxCell>
        <mxCell id="VUqLvzfOgISOAL3P8d6s-28" value="No" style="rounded=0;whiteSpace=wrap;html=1;fillColor=#dae8fc;strokeColor=#6c8ebf;" vertex="1" parent="1">
          <mxGeometry x="280" y="340.13" width="30" height="19.87" as="geometry" />
        </mxCell>
        <mxCell id="VUqLvzfOgISOAL3P8d6s-29" value="No" style="rounded=0;whiteSpace=wrap;html=1;fillColor=#dae8fc;strokeColor=#6c8ebf;" vertex="1" parent="1">
          <mxGeometry x="335" y="340.13" width="30" height="19.87" as="geometry" />
        </mxCell>
        <mxCell id="VUqLvzfOgISOAL3P8d6s-30" value="Yes" style="rounded=0;whiteSpace=wrap;html=1;fillColor=#dae8fc;strokeColor=#6c8ebf;" vertex="1" parent="1">
          <mxGeometry x="380" y="330" width="30" height="20" as="geometry" />
        </mxCell>
        <mxCell id="VUqLvzfOgISOAL3P8d6s-31" value="No" style="rounded=0;whiteSpace=wrap;html=1;fillColor=#dae8fc;strokeColor=#6c8ebf;" vertex="1" parent="1">
          <mxGeometry x="450" y="340.13" width="30" height="19.87" as="geometry" />
        </mxCell>
        <mxCell id="VUqLvzfOgISOAL3P8d6s-32" value="Yes" style="rounded=0;whiteSpace=wrap;html=1;fillColor=#dae8fc;strokeColor=#6c8ebf;" vertex="1" parent="1">
          <mxGeometry x="500" y="330" width="30" height="20" as="geometry" />
        </mxCell>
        <mxCell id="VUqLvzfOgISOAL3P8d6s-56" value="" style="endArrow=classic;html=1;rounded=0;exitX=0;exitY=1;exitDx=0;exitDy=0;entryX=0.5;entryY=0;entryDx=0;entryDy=0;" edge="1" parent="1" source="VUqLvzfOgISOAL3P8d6s-20" target="VUqLvzfOgISOAL3P8d6s-27">
          <mxGeometry relative="1" as="geometry">
            <mxPoint x="200" y="119.9" as="sourcePoint" />
            <mxPoint x="300" y="119.9" as="targetPoint" />
          </mxGeometry>
        </mxCell>
        <mxCell id="VUqLvzfOgISOAL3P8d6s-57" value="&amp;gt; 40" style="edgeLabel;resizable=0;html=1;;align=center;verticalAlign=middle;fontSize=9;" connectable="0" vertex="1" parent="VUqLvzfOgISOAL3P8d6s-56">
          <mxGeometry relative="1" as="geometry" />
        </mxCell>
        <mxCell id="VUqLvzfOgISOAL3P8d6s-58" value="" style="endArrow=classic;html=1;rounded=0;entryX=0.5;entryY=0;entryDx=0;entryDy=0;exitX=0;exitY=1;exitDx=0;exitDy=0;" edge="1" parent="1" source="VUqLvzfOgISOAL3P8d6s-1" target="VUqLvzfOgISOAL3P8d6s-12">
          <mxGeometry relative="1" as="geometry">
            <mxPoint x="380" y="140" as="sourcePoint" />
            <mxPoint x="310" y="129.9" as="targetPoint" />
          </mxGeometry>
        </mxCell>
        <mxCell id="VUqLvzfOgISOAL3P8d6s-59" value="No" style="edgeLabel;resizable=0;html=1;;align=center;verticalAlign=middle;fontSize=9;" connectable="0" vertex="1" parent="VUqLvzfOgISOAL3P8d6s-58">
          <mxGeometry relative="1" as="geometry" />
        </mxCell>
        <mxCell id="VUqLvzfOgISOAL3P8d6s-60" value="" style="endArrow=classic;html=1;rounded=0;entryX=0.5;entryY=0;entryDx=0;entryDy=0;exitX=1;exitY=1;exitDx=0;exitDy=0;" edge="1" parent="1" source="VUqLvzfOgISOAL3P8d6s-1" target="VUqLvzfOgISOAL3P8d6s-13">
          <mxGeometry relative="1" as="geometry">
            <mxPoint x="210" y="129.9" as="sourcePoint" />
            <mxPoint x="310" y="129.9" as="targetPoint" />
          </mxGeometry>
        </mxCell>
        <mxCell id="VUqLvzfOgISOAL3P8d6s-61" value="&lt;div&gt;Yes&lt;/div&gt;" style="edgeLabel;resizable=0;html=1;;align=center;verticalAlign=middle;fontSize=9;" connectable="0" vertex="1" parent="VUqLvzfOgISOAL3P8d6s-60">
          <mxGeometry relative="1" as="geometry" />
        </mxCell>
        <mxCell id="VUqLvzfOgISOAL3P8d6s-62" value="" style="endArrow=classic;html=1;rounded=0;exitX=0;exitY=1;exitDx=0;exitDy=0;entryX=0.5;entryY=0;entryDx=0;entryDy=0;" edge="1" parent="1" source="VUqLvzfOgISOAL3P8d6s-12" target="VUqLvzfOgISOAL3P8d6s-14">
          <mxGeometry relative="1" as="geometry">
            <mxPoint x="210" y="129.9" as="sourcePoint" />
            <mxPoint x="310" y="129.9" as="targetPoint" />
          </mxGeometry>
        </mxCell>
        <mxCell id="VUqLvzfOgISOAL3P8d6s-63" value="High" style="edgeLabel;resizable=0;html=1;;align=center;verticalAlign=middle;fontSize=9;" connectable="0" vertex="1" parent="VUqLvzfOgISOAL3P8d6s-62">
          <mxGeometry relative="1" as="geometry" />
        </mxCell>
        <mxCell id="VUqLvzfOgISOAL3P8d6s-64" value="" style="endArrow=classic;html=1;rounded=0;exitX=1;exitY=1;exitDx=0;exitDy=0;entryX=0.5;entryY=0;entryDx=0;entryDy=0;" edge="1" parent="1" source="VUqLvzfOgISOAL3P8d6s-12" target="VUqLvzfOgISOAL3P8d6s-15">
          <mxGeometry relative="1" as="geometry">
            <mxPoint x="280" y="200" as="sourcePoint" />
            <mxPoint x="250" y="240" as="targetPoint" />
          </mxGeometry>
        </mxCell>
        <mxCell id="VUqLvzfOgISOAL3P8d6s-65" value="Medium" style="edgeLabel;resizable=0;html=1;;align=center;verticalAlign=middle;fontSize=9;" connectable="0" vertex="1" parent="VUqLvzfOgISOAL3P8d6s-64">
          <mxGeometry relative="1" as="geometry" />
        </mxCell>
        <mxCell id="VUqLvzfOgISOAL3P8d6s-66" value="" style="endArrow=classic;html=1;rounded=0;exitX=0;exitY=1;exitDx=0;exitDy=0;entryX=0.5;entryY=0;entryDx=0;entryDy=0;" edge="1" parent="1" source="VUqLvzfOgISOAL3P8d6s-13" target="VUqLvzfOgISOAL3P8d6s-16">
          <mxGeometry relative="1" as="geometry">
            <mxPoint x="280" y="200" as="sourcePoint" />
            <mxPoint x="250" y="240" as="targetPoint" />
          </mxGeometry>
        </mxCell>
        <mxCell id="VUqLvzfOgISOAL3P8d6s-67" value="Low" style="edgeLabel;resizable=0;html=1;;align=center;verticalAlign=middle;fontSize=9;" connectable="0" vertex="1" parent="VUqLvzfOgISOAL3P8d6s-66">
          <mxGeometry relative="1" as="geometry" />
        </mxCell>
        <mxCell id="VUqLvzfOgISOAL3P8d6s-70" value="" style="endArrow=classic;html=1;rounded=0;exitX=0;exitY=1;exitDx=0;exitDy=0;entryX=0.5;entryY=0;entryDx=0;entryDy=0;" edge="1" parent="1" source="VUqLvzfOgISOAL3P8d6s-14" target="VUqLvzfOgISOAL3P8d6s-18">
          <mxGeometry relative="1" as="geometry">
            <mxPoint x="280" y="200" as="sourcePoint" />
            <mxPoint x="250" y="240" as="targetPoint" />
          </mxGeometry>
        </mxCell>
        <mxCell id="VUqLvzfOgISOAL3P8d6s-71" value="&lt;font style=&quot;font-size: 9px;&quot;&gt;&amp;lt;= 30&lt;/font&gt;" style="edgeLabel;resizable=0;html=1;;align=center;verticalAlign=middle;" connectable="0" vertex="1" parent="VUqLvzfOgISOAL3P8d6s-70">
          <mxGeometry relative="1" as="geometry" />
        </mxCell>
        <mxCell id="VUqLvzfOgISOAL3P8d6s-72" value="" style="endArrow=classic;html=1;rounded=0;exitX=0.5;exitY=1;exitDx=0;exitDy=0;entryX=0.5;entryY=0;entryDx=0;entryDy=0;" edge="1" parent="1" source="VUqLvzfOgISOAL3P8d6s-14" target="VUqLvzfOgISOAL3P8d6s-19">
          <mxGeometry relative="1" as="geometry">
            <mxPoint x="330" y="200" as="sourcePoint" />
            <mxPoint x="310" y="240" as="targetPoint" />
          </mxGeometry>
        </mxCell>
        <mxCell id="VUqLvzfOgISOAL3P8d6s-73" value="&lt;font style=&quot;font-size: 9px;&quot;&gt;31..40&lt;/font&gt;" style="edgeLabel;resizable=0;html=1;;align=center;verticalAlign=middle;" connectable="0" vertex="1" parent="VUqLvzfOgISOAL3P8d6s-72">
          <mxGeometry relative="1" as="geometry" />
        </mxCell>
        <mxCell id="VUqLvzfOgISOAL3P8d6s-74" value="" style="endArrow=classic;html=1;rounded=0;exitX=0.5;exitY=1;exitDx=0;exitDy=0;entryX=0.5;entryY=0;entryDx=0;entryDy=0;" edge="1" parent="1" source="VUqLvzfOgISOAL3P8d6s-15" target="VUqLvzfOgISOAL3P8d6s-21">
          <mxGeometry relative="1" as="geometry">
            <mxPoint x="210" y="129.9" as="sourcePoint" />
            <mxPoint x="310" y="129.9" as="targetPoint" />
          </mxGeometry>
        </mxCell>
        <mxCell id="VUqLvzfOgISOAL3P8d6s-75" value="Excellent" style="edgeLabel;resizable=0;html=1;;align=center;verticalAlign=middle;fontSize=9;" connectable="0" vertex="1" parent="VUqLvzfOgISOAL3P8d6s-74">
          <mxGeometry relative="1" as="geometry" />
        </mxCell>
        <mxCell id="VUqLvzfOgISOAL3P8d6s-76" value="" style="endArrow=classic;html=1;rounded=0;exitX=0;exitY=1;exitDx=0;exitDy=0;entryX=0.5;entryY=0;entryDx=0;entryDy=0;" edge="1" parent="1" source="VUqLvzfOgISOAL3P8d6s-15" target="VUqLvzfOgISOAL3P8d6s-20">
          <mxGeometry relative="1" as="geometry">
            <mxPoint x="360" y="250" as="sourcePoint" />
            <mxPoint x="360" y="300" as="targetPoint" />
          </mxGeometry>
        </mxCell>
        <mxCell id="VUqLvzfOgISOAL3P8d6s-77" value="Fair" style="edgeLabel;resizable=0;html=1;;align=center;verticalAlign=middle;fontSize=9;" connectable="0" vertex="1" parent="VUqLvzfOgISOAL3P8d6s-76">
          <mxGeometry relative="1" as="geometry" />
        </mxCell>
        <mxCell id="VUqLvzfOgISOAL3P8d6s-78" value="" style="endArrow=classic;html=1;rounded=0;exitX=0.5;exitY=1;exitDx=0;exitDy=0;entryX=0.5;entryY=0;entryDx=0;entryDy=0;" edge="1" parent="1" source="VUqLvzfOgISOAL3P8d6s-16" target="VUqLvzfOgISOAL3P8d6s-22">
          <mxGeometry relative="1" as="geometry">
            <mxPoint x="340" y="250" as="sourcePoint" />
            <mxPoint x="300" y="300" as="targetPoint" />
          </mxGeometry>
        </mxCell>
        <mxCell id="VUqLvzfOgISOAL3P8d6s-79" value="Fair" style="edgeLabel;resizable=0;html=1;;align=center;verticalAlign=middle;fontSize=9;" connectable="0" vertex="1" parent="VUqLvzfOgISOAL3P8d6s-78">
          <mxGeometry relative="1" as="geometry" />
        </mxCell>
        <mxCell id="VUqLvzfOgISOAL3P8d6s-80" value="" style="endArrow=classic;html=1;rounded=0;exitX=1;exitY=1;exitDx=0;exitDy=0;entryX=0.5;entryY=0;entryDx=0;entryDy=0;" edge="1" parent="1" source="VUqLvzfOgISOAL3P8d6s-16" target="VUqLvzfOgISOAL3P8d6s-23">
          <mxGeometry relative="1" as="geometry">
            <mxPoint x="420" y="250" as="sourcePoint" />
            <mxPoint x="420" y="300" as="targetPoint" />
          </mxGeometry>
        </mxCell>
        <mxCell id="VUqLvzfOgISOAL3P8d6s-81" value="Excellent" style="edgeLabel;resizable=0;html=1;;align=center;verticalAlign=middle;fontSize=9;" connectable="0" vertex="1" parent="VUqLvzfOgISOAL3P8d6s-80">
          <mxGeometry relative="1" as="geometry" />
        </mxCell>
        <mxCell id="VUqLvzfOgISOAL3P8d6s-82" value="" style="endArrow=classic;html=1;rounded=0;exitX=0.5;exitY=1;exitDx=0;exitDy=0;entryX=0.5;entryY=0;entryDx=0;entryDy=0;" edge="1" parent="1" source="VUqLvzfOgISOAL3P8d6s-13" target="VUqLvzfOgISOAL3P8d6s-24">
          <mxGeometry relative="1" as="geometry">
            <mxPoint x="525" y="240" as="sourcePoint" />
            <mxPoint x="480" y="300" as="targetPoint" />
          </mxGeometry>
        </mxCell>
        <mxCell id="VUqLvzfOgISOAL3P8d6s-83" value="Medium" style="edgeLabel;resizable=0;html=1;;align=center;verticalAlign=middle;fontSize=9;" connectable="0" vertex="1" parent="VUqLvzfOgISOAL3P8d6s-82">
          <mxGeometry relative="1" as="geometry" />
        </mxCell>
        <mxCell id="VUqLvzfOgISOAL3P8d6s-84" value="" style="endArrow=classic;html=1;rounded=0;exitX=1;exitY=1;exitDx=0;exitDy=0;entryX=0.5;entryY=0;entryDx=0;entryDy=0;" edge="1" parent="1" source="VUqLvzfOgISOAL3P8d6s-13" target="VUqLvzfOgISOAL3P8d6s-25">
          <mxGeometry relative="1" as="geometry">
            <mxPoint x="550" y="240" as="sourcePoint" />
            <mxPoint x="535" y="300" as="targetPoint" />
          </mxGeometry>
        </mxCell>
        <mxCell id="VUqLvzfOgISOAL3P8d6s-85" value="High" style="edgeLabel;resizable=0;html=1;;align=center;verticalAlign=middle;fontSize=9;" connectable="0" vertex="1" parent="VUqLvzfOgISOAL3P8d6s-84">
          <mxGeometry relative="1" as="geometry" />
        </mxCell>
        <mxCell id="VUqLvzfOgISOAL3P8d6s-87" value="" style="endArrow=classic;html=1;rounded=0;exitX=0.5;exitY=1;exitDx=0;exitDy=0;entryX=0.5;entryY=0;entryDx=0;entryDy=0;" edge="1" parent="1" source="VUqLvzfOgISOAL3P8d6s-20" target="VUqLvzfOgISOAL3P8d6s-28">
          <mxGeometry relative="1" as="geometry">
            <mxPoint x="210" y="129.9" as="sourcePoint" />
            <mxPoint x="310" y="129.9" as="targetPoint" />
          </mxGeometry>
        </mxCell>
        <mxCell id="VUqLvzfOgISOAL3P8d6s-88" value="&lt;div&gt;&amp;lt;= 30&lt;/div&gt;" style="edgeLabel;resizable=0;html=1;;align=center;verticalAlign=middle;fontSize=9;" connectable="0" vertex="1" parent="VUqLvzfOgISOAL3P8d6s-87">
          <mxGeometry relative="1" as="geometry" />
        </mxCell>
        <mxCell id="VUqLvzfOgISOAL3P8d6s-89" value="" style="endArrow=classic;html=1;rounded=0;exitX=0.5;exitY=1;exitDx=0;exitDy=0;entryX=0.5;entryY=0;entryDx=0;entryDy=0;" edge="1" parent="1" source="VUqLvzfOgISOAL3P8d6s-21" target="VUqLvzfOgISOAL3P8d6s-29">
          <mxGeometry relative="1" as="geometry">
            <mxPoint x="280" y="340" as="sourcePoint" />
            <mxPoint x="250" y="380" as="targetPoint" />
          </mxGeometry>
        </mxCell>
        <mxCell id="VUqLvzfOgISOAL3P8d6s-90" value="&amp;gt; 40" style="edgeLabel;resizable=0;html=1;;align=center;verticalAlign=middle;fontSize=9;" connectable="0" vertex="1" parent="VUqLvzfOgISOAL3P8d6s-89">
          <mxGeometry relative="1" as="geometry" />
        </mxCell>
        <mxCell id="VUqLvzfOgISOAL3P8d6s-91" value="" style="endArrow=classic;html=1;rounded=0;exitX=1;exitY=1;exitDx=0;exitDy=0;entryX=0.5;entryY=0;entryDx=0;entryDy=0;" edge="1" parent="1" source="VUqLvzfOgISOAL3P8d6s-21" target="VUqLvzfOgISOAL3P8d6s-30">
          <mxGeometry relative="1" as="geometry">
            <mxPoint x="300" y="340" as="sourcePoint" />
            <mxPoint x="300" y="380" as="targetPoint" />
          </mxGeometry>
        </mxCell>
        <mxCell id="VUqLvzfOgISOAL3P8d6s-92" value="31..40" style="edgeLabel;resizable=0;html=1;;align=center;verticalAlign=middle;fontSize=9;" connectable="0" vertex="1" parent="VUqLvzfOgISOAL3P8d6s-91">
          <mxGeometry relative="1" as="geometry" />
        </mxCell>
        <mxCell id="VUqLvzfOgISOAL3P8d6s-93" value="" style="endArrow=classic;html=1;rounded=0;exitX=0.5;exitY=1;exitDx=0;exitDy=0;entryX=0.5;entryY=0;entryDx=0;entryDy=0;" edge="1" parent="1" source="VUqLvzfOgISOAL3P8d6s-23" target="VUqLvzfOgISOAL3P8d6s-31">
          <mxGeometry relative="1" as="geometry">
            <mxPoint x="380" y="340" as="sourcePoint" />
            <mxPoint x="410" y="380" as="targetPoint" />
          </mxGeometry>
        </mxCell>
        <mxCell id="VUqLvzfOgISOAL3P8d6s-94" value="&amp;gt; 40" style="edgeLabel;resizable=0;html=1;;align=center;verticalAlign=middle;fontSize=9;" connectable="0" vertex="1" parent="VUqLvzfOgISOAL3P8d6s-93">
          <mxGeometry relative="1" as="geometry" />
        </mxCell>
        <mxCell id="VUqLvzfOgISOAL3P8d6s-95" value="" style="endArrow=classic;html=1;rounded=0;exitX=1;exitY=1;exitDx=0;exitDy=0;entryX=0.5;entryY=0;entryDx=0;entryDy=0;" edge="1" parent="1" source="VUqLvzfOgISOAL3P8d6s-23" target="VUqLvzfOgISOAL3P8d6s-32">
          <mxGeometry relative="1" as="geometry">
            <mxPoint x="480" y="340" as="sourcePoint" />
            <mxPoint x="480" y="380" as="targetPoint" />
          </mxGeometry>
        </mxCell>
        <mxCell id="VUqLvzfOgISOAL3P8d6s-96" value="31..40" style="edgeLabel;resizable=0;html=1;;align=center;verticalAlign=middle;fontSize=9;" connectable="0" vertex="1" parent="VUqLvzfOgISOAL3P8d6s-95">
          <mxGeometry relative="1" as="geometry" />
        </mxCell>
      </root>
    </mxGraphModel>
  </diagram>
</mxfile>
